<?xml version="1.0" encoding="UTF-8"?>
<!DOCTYPE svg PUBLIC "-//W3C//DTD SVG 1.1//EN" "http://www.w3.org/Graphics/SVG/1.1/DTD/svg11.dtd">
<!-- Creator: CorelDRAW -->
<svg xmlns="http://www.w3.org/2000/svg" xml:space="preserve" width="27.7376mm" height="26.7681mm" version="1.1" style="shape-rendering:geometricPrecision; text-rendering:geometricPrecision; image-rendering:optimizeQuality; fill-rule:evenodd; clip-rule:evenodd"
viewBox="0 0 2768.57 2671.8"
 xmlns:xlink="http://www.w3.org/1999/xlink"
 xmlns:xodm="http://www.corel.com/coreldraw/odm/2003">
 <defs>
  <style type="text/css">
   <![CDATA[
    .fil1 {fill:#B0CB1F}
    .fil0 {fill:#103445}
   ]]>
  </style>
 </defs>
 <g id="Capa_x0020_1">
  <metadata id="CorelCorpID_0Corel-Layer"/>
  <g id="_1749391711584">
   <path class="fil0" d="M1391.65 54.38c-403.27,135.41 -692.16,509.08 -706.56,952.99l0 1.22 0 1663.21 412.41 0c0,-956.69 0,-563.15 0,-1660.81l0 -3.62c15.56,-291.11 225.1,-529.73 507.14,-584.08l-212.99 -368.92z"/>
   <g>
    <path class="fil1" d="M1714.46 1671.25l577.68 1000.55 476.21 0 -447.15 -774.5c270.39,-188.14 447.38,-501.17 447.38,-855.58 0,-575.32 -472.16,-1041.73 -1041.74,-1041.73 -41.88,0 -83.11,2.49 -123.61,7.2l239.82 415.39c288.92,54.93 514.23,311.13 514.23,618.94 0,347.88 -282.02,629.88 -629.89,629.88 -4.32,0 -8.62,-0.07 -12.93,-0.16z"/>
    <path class="fil1" d="M579.78 1368.27c270.91,-14.54 417.84,297.63 1088.07,303.77 -409.38,308.71 -639.18,293.06 -907.94,195.73 -268.76,-97.33 -432.69,-165.88 -759.92,-30.59 133.61,-263.67 308.88,-454.37 579.78,-468.91z"/>
   </g>
  </g>
 </g>
</svg>
